<svg width="15" height="15" viewBox="0 0 15 15" fill="none" xmlns="http://www.w3.org/2000/svg">
<path d="M9.7973 4.05376L2.47991 11.3711L2.00143 13.0034L3.60043 12.5411L10.9421 5.19938L9.7973 4.05376ZM11.0457 2.80532L12.1905 3.95013L13.2576 2.88305C13.3335 2.80713 13.3762 2.70418 13.3762 2.59684C13.3762 2.4895 13.3335 2.38655 13.2576 2.31064L12.6844 1.73824C12.6085 1.66235 12.5056 1.61971 12.3982 1.61971C12.2909 1.61971 12.1879 1.66235 12.112 1.73824L11.0466 2.80532H11.0457ZM13.83 0.593427L14.4024 1.16583C14.7819 1.5454 14.9951 2.06013 14.9951 2.59684C14.9951 3.13355 14.7819 3.64829 14.4024 4.02785L4.45054 13.9806L1.03392 14.9683C0.894659 15.0085 0.747169 15.0105 0.606851 14.9742C0.466532 14.9379 0.338531 14.8646 0.23621 14.7619C0.133889 14.6593 0.0610005 14.5311 0.0251534 14.3906C-0.0106936 14.2502 -0.00818463 14.1027 0.0324185 13.9636L1.04283 10.5186L10.9688 0.592618C11.3484 0.213165 11.8631 0 12.3998 0C12.9365 0 13.4513 0.213165 13.8308 0.592618L13.83 0.593427Z" fill="#53B175"/>
</svg>
