<svg width="23" height="22" viewBox="0 0 23 22" fill="none" xmlns="http://www.w3.org/2000/svg">
<path d="M13.6929 0.351887C13.9779 0.0783408 14.4404 0.0782861 14.7254 0.351887L16.901 2.44159C17.1859 2.7153 17.1859 3.15951 16.901 3.43333C16.286 4.02408 16.2861 4.98563 16.901 5.57647C17.5161 6.1673 18.5171 6.16727 19.1322 5.57647C19.4171 5.30294 19.8797 5.30291 20.1647 5.57647L22.3402 7.66617C22.6252 7.93989 22.6251 8.3841 22.3402 8.65792L9.01363 21.4586C8.72859 21.7322 8.26614 21.7324 7.98114 21.4586L5.80558 19.3689C5.52077 19.0951 5.52078 18.6509 5.80558 18.3772C6.42068 17.7863 6.42068 16.8248 5.80558 16.234C5.19046 15.6434 4.18938 15.6433 3.57439 16.234C3.28935 16.5076 2.8269 16.5078 2.5419 16.234L0.36634 14.1443C0.0814893 13.8705 0.0815265 13.4263 0.36634 13.1526L13.6929 0.351887ZM3.12294 14.8086C4.29033 14.1326 5.83148 14.2756 6.83807 15.2423C7.84462 16.2091 7.99322 17.6894 7.28952 18.8108L8.49808 19.9717L11.4096 17.175L10.294 16.1034C10.0091 15.8298 10.0086 15.3862 10.2933 15.1124C10.5783 14.8386 11.0408 14.8386 11.3258 15.1124L12.4414 16.1839L20.7922 8.16272L19.5836 7.00185C18.4162 7.67783 16.875 7.53505 15.8685 6.56822C14.8621 5.60133 14.7133 4.12105 15.417 2.9997L14.2092 1.8395L5.8584 9.86073L6.974 10.9323C7.25902 11.2061 7.25902 11.6503 6.974 11.924C6.68895 12.1975 6.22717 12.1971 5.94221 11.9234L4.82662 10.8518L1.91508 13.6484L3.12294 14.8086Z" fill="#181725" stroke="#181725" stroke-width="0.3"/>
<path d="M7.57337 12.4994C7.85833 12.2256 8.32092 12.2256 8.60586 12.4994L9.69329 13.5439C9.97825 13.8176 9.97825 14.2619 9.69329 14.5356C9.40833 14.8093 8.94578 14.8094 8.6608 14.5356L7.57337 13.4911C7.28846 13.2174 7.28843 12.7731 7.57337 12.4994Z" fill="#181725" stroke="#181725" stroke-width="0.3"/>
</svg>
